# xmcd CD database file
#
# Track frame offsets:
#	187
#	28097
#	48417
#	68235
#	86007
#	101450
#	135337
#	149105
#	165662
#	185940
#	198672
#	211187
#	230640
#	253017
#	260402
#	279750
#	297430
#
# Disc length: 4349 seconds
#
# Revision: 0
# Processed by: cddbd v1.5PL3 Copyright (c) Steve Scherf et al.
# Submitted via: CDex 1.51
#
DISCID=0910fb11
DTITLE=Various Artist - 決定版 声優グラフィティ 女性編
DYEAR=1993
DGENRE=Anime(J)
TTITLE0=もういちどLove You
TTITLE1=トップをねらえ！ 〜Fly High〜
TTITLE2=ラムはお好き？
TTITLE3=星の雨
TTITLE4=あいたい
TTITLE5=今が一番いい時
TTITLE6=ラブ・ラブ・ミンキーモモ
TTITLE7=風の未来へ （合唱バージョン）
TTITLE8=僕のSomeday
TTITLE9=私のたまごやき
TTITLE10=ダン・ヂン・ヅン・デン・ドン 〜ご先祖さまはバイキング〜
TTITLE11=優しい海
TTITLE12=濃霧 〜NONE〜
TTITLE13=ねむのおやま
TTITLE14=Special Monday
TTITLE15=ノーブランド・ヒーローズ
TTITLE16=元気でね
EXTD=YEAR: 1993.11.13
EXTT0=
EXTT1=
EXTT2=
EXTT3=
EXTT4=
EXTT5=
EXTT6=
EXTT7=
EXTT8=
EXTT9=
EXTT10=
EXTT11=
EXTT12=
EXTT13=
EXTT14=
EXTT15=
EXTT16=
PLAYORDER=
